<svg width="800" height="800" viewBox="0 0 800 800" fill="none" xmlns="http://www.w3.org/2000/svg">
<path fill-rule="evenodd" clip-rule="evenodd" d="M405.161 197.056C405.831 196.954 406.608 196.851 407.502 196.746C407.123 196.761 406.687 196.761 406.228 196.751C406.677 196.628 407.151 196.503 407.648 196.379C407.237 196.409 406.821 196.425 406.404 196.428L406.793 196.372C407.613 196.298 408.524 196.224 409.536 196.151C408.518 196.066 407.633 195.982 406.87 195.898C407.595 195.722 408.42 195.533 409.356 195.328C408.411 195.39 407.555 195.44 406.78 195.478C407.828 195.373 409.024 195.268 410.383 195.16C408.6 195.13 407.092 195.081 405.862 195.011C407.449 194.602 408.986 194.524 410.971 194.329C408.912 194.215 407.383 194.091 406.299 193.951C406.738 193.904 407.199 193.855 407.683 193.806C407.287 193.786 406.912 193.765 406.554 193.743C407.961 193.458 409.672 193.151 411.496 192.817C408.736 192.866 406.526 192.866 404.85 192.812C406.195 192.286 410.83 191.346 412.57 190.981C410.12 191.086 407.967 191.152 405.996 191.15C406.998 190.931 408.094 190.7 409.234 190.456C407.106 190.555 405.299 190.617 403.808 190.639C405.063 190.233 406.714 189.765 408.754 189.229C407.456 189.437 406.304 189.612 405.287 189.754C405.883 189.466 406.568 189.162 407.346 188.839C407.799 188.68 408.289 188.511 408.82 188.332C407.582 188.538 406.118 188.771 404.785 188.952C405.977 188.535 407.518 188.053 409.4 187.502C407.376 187.88 405.706 188.166 404.352 188.367C404.714 188.225 405.097 188.082 405.498 187.935C403.756 188.188 403.089 188.757 400.666 188.729C401.929 188.25 403.715 187.673 406.011 186.992C404.765 187.23 403.653 187.432 402.665 187.599C402.942 187.469 403.231 187.335 403.531 187.197C403.866 187.1 404.187 187.015 404.477 186.948C404.275 186.978 404.08 187.006 403.89 187.033C404.391 186.805 404.922 186.567 405.481 186.319C404.254 186.708 403.198 187.012 402.298 187.24C401.678 187.311 401.141 187.363 400.68 187.394C401.728 186.719 403.509 185.807 405.773 184.709C404.03 185.318 402.636 185.737 401.54 185.998C401.73 185.789 401.936 185.571 402.158 185.341C402.97 185.084 403.883 184.821 404.863 184.569C404.02 184.693 403.269 184.798 402.606 184.886C403.181 184.314 403.849 183.681 404.619 182.985C403.085 183.849 401.758 184.565 400.614 185.13L400.328 185.16C400.908 184.804 401.514 184.41 402.12 184.062C401.614 184.284 399.517 185.246 398.941 185.263C399.743 184.468 400.776 183.533 402.086 182.437C400.793 183.119 399.644 183.707 398.626 184.197C399.063 183.545 399.7 182.796 400.407 182.024C397.819 183.515 396.008 184.23 394.791 184.407C395.151 183.627 395.976 182.611 396.93 181.551C395.769 182.228 394.764 182.746 393.9 183.127C393.9 182.304 394.425 181.765 395.018 180.943C394.645 181.23 394.287 181.503 393.942 181.761C393.953 181.563 393.965 181.359 393.98 181.148C393.557 181.53 393.153 181.885 392.766 182.214C392.887 181.661 393.121 181.048 393.429 180.425C392.679 181.142 392.023 181.712 391.45 182.158C391.498 181.627 391.571 181.04 391.665 180.397C390.767 181.148 389.949 181.794 389.205 182.347C389.24 181.663 389.511 180.83 389.92 179.977C389.231 180.646 388.621 181.187 388.083 181.619C388.207 181.025 388.362 180.448 388.474 180.002C388.234 180.312 387.966 180.616 387.675 180.911C387.722 180.185 387.843 179.447 387.919 178.904C387.072 180.184 385.726 181.386 384.324 182.264C383.974 181.252 384.251 179.508 384.383 178.477C383.756 179.444 382.843 180.369 381.834 181.143C381.845 180.933 381.856 180.722 381.87 180.515C381.942 179.407 381.56 180.428 379.216 182.1C379.405 181.467 379.747 180.703 380.275 179.788C379.798 180.176 379.34 180.54 378.899 180.881C379.04 180.32 379.278 179.665 379.632 178.907C378.01 180.381 376.608 181.516 375.364 182.322C375.088 181.575 375.253 180.346 376.085 178.506C375.011 179.497 373.455 180.859 372.049 181.808C372.156 181.051 372.317 180.332 372.319 179.908C370.831 181.136 369.559 182.069 368.471 182.764C367.523 182.026 367.118 181.348 366.628 180.495C366.618 180.603 366.605 180.709 366.591 180.814C366.382 180.547 366.172 180.264 365.959 179.963C365.974 181.054 365.77 181.974 365.403 182.705C364.428 182.079 364.369 181.983 364.377 181.171C364.291 181.335 364.204 181.492 364.116 181.648C363.559 181.092 362.996 180.411 362.411 179.607C362.432 180.364 362.346 181.04 362.173 181.627C362.159 180.939 362.235 180.286 362.269 179.886C361.291 181.506 360.229 182.722 359.18 183.558C358.198 182.869 357.538 181.716 357.09 180.884C357.086 181.059 357.084 181.281 357.077 181.534C356.844 181.243 356.614 180.932 356.389 180.598C356.448 181.239 356.613 182.527 356.336 183.628C355.845 183.36 355.348 183.011 354.854 182.577C354.843 182.478 354.834 182.376 354.826 182.272L354.722 182.46C354.081 181.877 353.447 181.151 352.841 180.273C352.896 180.794 353.028 181.743 352.934 182.672C351.872 182.941 351.238 182.909 350.957 181.084C349.995 182.605 350.833 183.5 349.903 184.298C349.033 183.788 348.057 183.133 346.962 182.305C346.951 182.408 346.948 182.528 346.949 182.66C346.75 182.534 346.549 182.404 346.342 182.268C346.346 182.697 346.512 183.4 346.622 184.149C345.539 183.639 344.277 182.929 342.806 181.974C342.819 182.559 343.142 183.652 343.209 184.675C341.987 184.072 340.613 183.183 339.028 182.006C339.832 183.589 340.047 184.739 339.86 185.529C337.657 184.178 337.337 183.177 337.274 184.164C336.843 183.857 336.756 183.866 336.794 184.441C336.824 184.877 336.851 185.327 336.857 185.768C333.685 184.286 333.178 182.956 333.278 184.177C333.318 184.651 333.353 185.14 333.363 185.618L333.288 185.573C333.167 185.449 333.05 185.323 332.942 185.193L332.986 185.386C332.104 184.818 331.311 184.125 330.742 183.362C330.874 184.256 331.442 186.617 330.586 187.685C329.664 187.133 328.613 186.411 327.413 185.49C327.422 185.74 327.429 185.982 327.434 186.216C327.291 186.123 327.148 186.028 327.001 185.929C327.068 186.366 327.124 186.776 327.17 187.163C326.607 186.816 325.967 186.363 325.238 185.786C325.484 186.243 325.683 186.699 325.816 187.135C325.109 186.728 324.338 186.252 323.495 185.696C323.772 187.347 323.899 188.634 323.781 189.582C323.541 189.435 323.311 189.282 323.092 189.125C323.252 189.375 323.446 189.671 323.646 189.99C322.435 189.958 320.692 189.528 318.265 188.529C318.919 189.135 319.514 189.731 319.947 190.275C318.982 189.925 317.901 189.497 316.687 188.993C317.284 189.454 317.816 189.883 318.289 190.282C317.751 190.096 317.186 189.895 316.588 189.677C317.456 190.26 318.202 190.792 318.841 191.278C317.357 190.924 315.477 190.317 313.124 189.474C315.124 190.795 316.494 191.855 317.377 192.704C316.246 192.634 314.779 192.44 312.907 192.093C314.308 192.543 318.548 193.696 318.683 194.593C317.824 194.504 316.83 194.37 315.687 194.184C316.782 194.504 317.768 194.801 318.62 195.077C318.504 195.318 316.737 195.425 316.36 195.447C314.725 195.278 313.196 195.013 312.641 195.009C313.355 195.179 314.002 195.347 314.587 195.513C314.356 195.517 314.116 195.521 313.865 195.523C313.504 195.447 313.126 195.361 312.73 195.267C312.891 195.354 313.05 195.441 313.207 195.528C312.083 195.53 310.782 195.515 309.288 195.481C309.54 195.513 309.783 195.545 310.023 195.577C311.939 195.964 313.398 196.349 314.44 196.735C313.413 196.872 311.994 197.026 310.095 197.202C312.377 197.231 314.354 197.38 315.63 197.6C314.649 197.615 313.547 197.619 312.312 197.613C313.234 197.713 314.076 197.811 314.838 197.908C314.055 198.02 313.324 198.156 312.29 198.268C312.533 198.292 312.764 198.32 312.981 198.349C311.942 198.528 310.384 198.744 308.165 199.005C308.735 198.998 309.285 198.997 309.812 199.005C308.714 199.157 307.486 199.314 306.129 199.478C308.83 199.602 311.623 199.603 313.955 200.156C312.192 200.836 311.63 200.908 309.59 201.145C309.968 201.131 310.405 201.131 310.864 201.142C310.414 201.265 309.941 201.389 309.444 201.513C309.854 201.482 310.271 201.467 310.687 201.464L310.298 201.52C309.479 201.594 308.567 201.668 307.555 201.742C308.573 201.826 309.458 201.911 310.221 201.994C309.496 202.17 308.67 202.359 307.735 202.564C308.68 202.501 309.536 202.452 310.312 202.414C309.263 202.518 308.067 202.624 306.709 202.731C308.492 202.763 309.999 202.811 311.229 202.881C309.643 203.29 308.105 203.368 306.119 203.563C308.179 203.676 309.709 203.802 310.791 203.94C310.353 203.989 309.893 204.037 309.409 204.086C309.804 204.106 310.18 204.127 310.538 204.149C309.131 204.434 307.42 204.741 305.595 205.075C308.355 205.026 310.566 205.025 312.242 205.079C311.555 205.348 309.382 205.856 308.536 206.06C307.335 206.325 305.964 206.609 304.522 206.912C306.972 206.806 309.125 206.739 311.095 206.742C310.093 206.961 308.997 207.192 307.856 207.436C309.985 207.337 311.791 207.275 313.284 207.253C312.028 207.658 310.377 208.126 308.338 208.663C309.635 208.454 310.788 208.28 311.804 208.138C311.208 208.426 310.523 208.73 309.745 209.052C309.292 209.212 308.802 209.381 308.271 209.56C309.509 209.353 310.973 209.122 312.306 208.94C311.114 209.357 309.574 209.839 307.692 210.391C309.716 210.011 311.385 209.726 312.739 209.526C312.377 209.666 311.995 209.81 311.593 209.958C311.991 209.899 312.898 209.641 313.988 209.354C315.059 209.218 315.863 209.157 316.425 209.163C315.163 209.642 313.376 210.218 311.08 210.899C312.326 210.662 313.438 210.46 314.425 210.292C314.15 210.423 313.861 210.557 313.56 210.695C313.225 210.791 312.904 210.876 312.614 210.944C312.816 210.914 313.01 210.886 313.201 210.859C312.701 211.087 312.169 211.325 311.61 211.573C313.406 211.004 314.393 210.636 316.411 210.498C315.363 211.174 313.583 212.084 311.318 213.184C313.062 212.574 314.455 212.155 315.552 211.894C314.708 212.82 314.15 212.827 312.227 213.323C313.072 213.199 313.822 213.094 314.485 213.005C313.91 213.578 313.242 214.21 312.472 214.906C313.128 214.537 315.992 212.812 316.762 212.732C316.183 213.089 315.578 213.482 314.972 213.831C315.477 213.609 317.573 212.646 318.15 212.629C317.349 213.424 316.315 214.359 315.005 215.455C316.298 214.771 317.447 214.185 318.466 213.695C318.029 214.346 317.391 215.096 316.684 215.869C319.272 214.377 321.083 213.662 322.299 213.485C321.941 214.264 321.116 215.281 320.162 216.341C321.323 215.665 322.327 215.146 323.192 214.764C323.191 215.587 322.666 216.127 322.073 216.949C322.446 216.661 322.804 216.389 323.15 216.131C323.139 216.329 323.126 216.533 323.111 216.743C323.534 216.362 323.938 216.007 324.325 215.678C324.204 216.23 323.971 216.844 323.663 217.467C324.412 216.75 325.068 216.179 325.641 215.734C325.593 216.266 325.52 216.852 325.426 217.495C326.325 216.744 327.142 216.098 327.887 215.545C327.851 216.228 327.581 217.063 327.171 217.915C327.861 217.246 328.469 216.705 329.008 216.273C328.884 216.867 328.729 217.444 328.617 217.889C328.857 217.58 329.125 217.275 329.417 216.98C329.368 217.707 329.249 218.445 329.172 218.987C330.019 217.708 331.364 216.506 332.767 215.628C333.118 216.64 332.841 218.383 332.709 219.415C333.336 218.448 334.249 217.523 335.258 216.749C335.247 216.96 335.235 217.17 335.221 217.377C335.15 218.485 335.531 217.463 337.875 215.792C337.686 216.424 337.344 217.189 336.816 218.104C337.293 217.715 337.751 217.351 338.192 217.012C338.052 217.572 337.813 218.227 337.459 218.985C339.082 217.511 340.484 216.376 341.728 215.57C342.003 216.317 341.839 217.546 341.007 219.385C342.08 218.395 343.636 217.033 345.042 216.084C344.935 216.841 344.775 217.56 344.773 217.983C346.261 216.757 347.533 215.822 348.621 215.127C349.568 215.865 349.974 216.543 350.462 217.396C350.474 217.289 350.486 217.182 350.5 217.078C350.709 217.345 350.92 217.628 351.133 217.929C351.118 216.839 351.321 215.918 351.688 215.187C352.663 215.813 352.722 215.909 352.714 216.72C352.8 216.557 352.887 216.4 352.976 216.245C353.533 216.8 354.095 217.48 354.68 218.285C354.658 217.528 354.745 216.852 354.919 216.265C354.931 216.953 354.857 217.606 354.822 218.006C355.8 216.386 356.863 215.17 357.911 214.334C358.893 215.023 359.553 216.175 360.002 217.007C360.005 216.833 360.007 216.611 360.015 216.358C360.248 216.648 360.477 216.96 360.702 217.294C360.643 216.653 360.478 215.366 360.755 214.264C361.246 214.532 361.743 214.881 362.238 215.314C362.248 215.415 362.258 215.516 362.264 215.619L362.37 215.433C363.01 216.015 363.645 216.741 364.251 217.619C364.195 217.098 364.063 216.148 364.157 215.219C365.219 214.95 365.853 214.983 366.134 216.809C367.097 215.287 366.258 214.392 367.189 213.593C368.058 214.105 369.035 214.759 370.13 215.587C370.14 215.484 370.144 215.364 370.142 215.232C370.341 215.358 370.542 215.488 370.749 215.624C370.745 215.195 370.579 214.492 370.47 213.743C371.552 214.253 372.813 214.963 374.285 215.918C374.273 215.333 373.949 214.241 373.882 213.218C375.104 213.82 376.479 214.709 378.063 215.886C377.259 214.303 377.044 213.153 377.231 212.363C379.434 213.714 379.754 214.715 379.817 213.727C380.249 214.035 380.336 214.026 380.297 213.451C380.267 213.015 380.241 212.566 380.235 212.124C383.406 213.606 383.913 214.935 383.813 213.715C383.774 213.242 383.738 212.753 383.728 212.274L383.804 212.318C383.925 212.443 384.041 212.57 384.15 212.698L384.105 212.506C384.988 213.075 385.78 213.767 386.349 214.529C386.217 213.636 385.649 211.274 386.506 210.207C387.428 210.759 388.478 211.48 389.679 212.403C389.67 212.152 389.662 211.91 389.658 211.676C389.8 211.77 389.944 211.865 390.091 211.963C390.024 211.526 389.968 211.115 389.922 210.729C390.485 211.077 391.124 211.53 391.854 212.106C391.607 211.65 391.409 211.193 391.275 210.756C391.983 211.164 392.754 211.641 393.596 212.196C393.319 210.545 393.192 209.258 393.311 208.309C393.55 208.456 393.78 208.609 393.999 208.768C393.839 208.517 393.645 208.221 393.445 207.902C394.656 207.935 396.4 208.365 398.827 209.363C398.172 208.757 397.577 208.161 397.145 207.617C398.109 207.966 399.191 208.394 400.405 208.898C399.807 208.438 399.274 208.01 398.802 207.609C399.339 207.796 399.906 207.997 400.503 208.215C399.635 207.632 398.89 207.1 398.25 206.614C399.735 206.968 401.614 207.575 403.967 208.418C401.967 207.097 400.596 206.037 399.715 205.188C400.845 205.258 402.312 205.452 404.184 205.799C402.783 205.349 398.542 204.196 398.409 203.299C399.268 203.388 400.261 203.522 401.405 203.708C400.309 203.389 399.323 203.091 398.471 202.815C398.587 202.575 400.354 202.467 400.732 202.445C402.367 202.614 403.895 202.88 404.45 202.883C403.736 202.713 403.089 202.546 402.505 202.379C402.735 202.374 402.975 202.371 403.226 202.369C403.588 202.446 403.964 202.531 404.361 202.626C404.2 202.538 404.041 202.451 403.884 202.364C405.008 202.362 406.309 202.377 407.803 202.411C407.552 202.379 407.308 202.347 407.068 202.315C405.152 201.928 403.694 201.543 402.651 201.157C403.678 201.02 405.097 200.866 406.997 200.691C404.714 200.661 402.737 200.512 401.461 200.292C402.442 200.278 403.544 200.273 404.78 200.279C403.858 200.18 403.016 200.081 402.254 199.985C403.036 199.871 403.767 199.736 404.802 199.624C404.558 199.599 404.328 199.572 404.111 199.543C405.15 199.364 406.707 199.148 408.925 198.887C408.357 198.894 407.806 198.893 407.279 198.887C408.377 198.735 409.604 198.578 410.963 198.414C408.26 198.289 405.468 198.289 403.136 197.737C403.72 197.511 404.396 197.285 405.161 197.056Z" fill="#040606"/>
<path fill-rule="evenodd" clip-rule="evenodd" d="M268.035 117.653C267.83 117.666 267.615 117.681 267.391 117.697C268.419 117.389 269.19 117.154 270.046 116.493C270.144 115.855 268.961 115.467 265.795 115.725C266.422 115.565 267.263 115.219 267.982 114.815C267.035 114.886 265.817 115.043 264.274 115.313C265.929 114.433 267.039 113.743 267.706 113.195C265.996 112.392 264.729 112.736 262.881 112.958C264.256 112.32 265.268 111.785 265.973 111.333C265.663 111.363 265.339 111.397 264.999 111.435C265.263 111.315 265.514 111.198 265.753 111.084C264.73 110.986 263.496 110.925 262.178 110.851C264.067 110.291 265.571 109.787 266.698 109.323C265.694 108.87 263.508 108.666 261.027 108.391C262.896 107.944 264.397 107.53 265.538 107.136C264.807 107.044 264.008 106.954 263.176 106.855C264.647 106.514 265.89 106.192 266.91 105.883C265.963 105.573 264.733 105.262 263.223 104.939C264.153 104.948 264.977 104.942 265.702 104.919C265.013 104.498 264.188 104.07 263.215 103.63C263.8 103.639 266.019 104.472 267.649 104.482C266.779 103.883 265.016 103.254 262.388 102.542C263.852 102.637 265.053 102.675 266.02 102.661C265.741 102.537 265.448 102.411 265.141 102.287C265.425 102.281 266.102 102.454 266.909 102.629C267.669 102.582 268.229 102.489 268.61 102.351C267.642 101.934 266.295 101.494 264.577 101.017C265.479 101.08 266.282 101.123 266.991 101.144C266.339 100.76 265.598 100.346 264.783 99.9033C266.516 100.451 267.769 100.696 268.636 100.703C267.829 99.8988 266.266 98.8569 264.216 97.5977C265.542 98.0963 266.585 98.3954 267.391 98.5291C266.682 97.4719 265.766 96.2364 264.607 94.7965C266.332 96.0763 267.719 97.0258 268.814 97.6238C268.129 97.155 267.329 96.4017 266.554 95.8091C267.603 96.3707 268.33 96.7532 269.04 96.9204C268.305 95.916 267.373 94.754 266.205 93.4081C267.24 94.1184 268.156 94.7202 268.962 95.2098C268.515 94.3495 267.91 93.3913 267.252 92.4153C269.354 94.0196 270.75 94.658 271.618 94.6406C271.196 93.5747 270.402 92.266 269.51 90.9227C270.455 91.6539 271.257 92.1871 271.933 92.5517C271.744 91.3394 271.263 90.6653 270.672 89.591C270.991 89.9289 271.297 90.2478 271.591 90.5494C271.538 90.2597 271.483 89.9625 271.425 89.6563C271.8 90.1214 272.156 90.5508 272.495 90.9482C272.286 90.161 271.987 89.3116 271.634 88.4637C272.309 89.3487 272.885 90.0381 273.377 90.5641C273.223 89.7921 273.039 88.9436 272.828 88.0187C273.611 88.9197 274.315 89.684 274.948 90.329C274.767 89.3282 274.393 88.1632 273.919 87.0011C274.541 87.8285 275.08 88.4858 275.545 88.9993C275.324 88.1525 275.087 87.3377 274.908 86.7076C275.142 87.1089 275.395 87.4954 275.66 87.8636C275.461 86.8051 275.211 85.7444 275.035 84.9634C275.904 86.6534 277.095 88.1168 278.25 89.0884C278.257 87.5179 277.669 85.0137 277.343 83.524C277.991 84.8054 278.824 85.9589 279.687 86.8677C279.632 86.5606 279.576 86.2531 279.519 85.9514C279.216 84.3361 279.71 85.7524 281.688 87.6792C281.414 86.7902 281.006 85.7424 280.438 84.5156C280.851 84.9789 281.246 85.4095 281.624 85.8097C281.4 85.0152 281.088 84.1068 280.674 83.07C282.115 84.8698 283.328 86.2213 284.359 87.125C284.376 85.9609 283.982 84.1889 282.995 81.6692C283.953 82.882 285.324 84.5318 286.497 85.6078C286.25 84.5173 285.977 83.4959 285.878 82.8708C287.172 84.339 288.251 85.4242 289.15 86.1975C289.626 84.8941 289.747 83.8031 289.884 82.4344C289.916 82.5909 289.949 82.7441 289.983 82.8942C290.064 82.4545 290.142 81.9892 290.218 81.4972C290.458 83.106 290.807 84.4148 291.223 85.4077C291.744 84.2633 291.762 84.108 291.571 82.9147C291.667 83.1357 291.762 83.3481 291.857 83.5559C292.109 82.6111 292.337 81.4797 292.55 80.1617C292.709 81.2806 292.922 82.2564 293.175 83.0814C293.026 82.0645 292.826 81.1207 292.71 80.5384C293.747 82.7016 294.748 84.2495 295.653 85.2406C296.164 84.0013 296.348 82.1528 296.463 80.8246C296.505 81.0805 296.558 81.4072 296.621 81.778C296.712 81.2967 296.797 80.7853 296.874 80.2412C296.981 81.1993 297.163 83.1336 297.604 84.6937C297.876 84.1855 298.135 83.5579 298.372 82.8062C298.356 82.6564 298.339 82.5054 298.32 82.3516L298.434 82.603C298.737 81.5974 299.003 80.3832 299.214 78.9512C299.295 79.7317 299.423 81.1596 299.7 82.5077C300.484 82.6602 300.908 82.4673 300.681 79.7151C301.684 81.7349 301.318 83.2452 302.134 84.2084C302.609 83.2572 303.123 82.069 303.679 80.5988C303.71 80.7495 303.74 80.9245 303.769 81.1193C303.875 80.8878 303.982 80.6511 304.091 80.4029C304.187 81.0353 304.235 82.1094 304.332 83.2361C304.952 82.2391 305.648 80.9038 306.43 79.161C306.555 80.0242 306.585 81.7076 306.774 83.2306C307.468 82.063 308.199 80.4392 309.008 78.3431C308.824 80.8594 308.94 82.6014 309.248 83.7239C310.438 81.2283 310.427 79.6809 310.695 81.1202C310.918 80.5693 310.98 80.563 311.085 81.4181C311.164 82.0675 311.249 82.7363 311.346 83.3879C313.165 80.4783 313.206 78.4035 313.417 80.2247C313.498 80.9316 313.586 81.6604 313.688 82.3671L313.73 82.284C313.784 82.0733 313.834 81.8601 313.878 81.645L313.892 81.9388C314.363 80.9 314.743 79.6989 314.956 78.4453C315.07 79.7913 315.225 83.3996 316.052 84.7756C316.553 83.7514 317.102 82.4483 317.707 80.8152C317.759 81.1873 317.81 81.5456 317.86 81.8909C317.935 81.7208 318.011 81.5483 318.089 81.369C318.143 82.0272 318.198 82.6456 318.256 83.2252C318.559 82.5844 318.891 81.7709 319.256 80.7543C319.192 81.4828 319.162 82.2013 319.171 82.8739C319.559 82.1124 319.974 81.2346 320.421 80.2238C320.61 82.7179 320.818 84.6431 321.116 86.0137C321.245 85.7416 321.367 85.464 321.48 85.1807C321.428 85.5867 321.364 86.0668 321.301 86.5828C322.117 86.2577 323.205 85.2256 324.628 83.1989C324.321 84.2415 324.052 85.2558 323.883 86.1562C324.458 85.4195 325.097 84.5421 325.807 83.5224C325.506 84.3373 325.242 85.0907 325.012 85.7873C325.335 85.3902 325.674 84.9634 326.031 84.5069C325.573 85.5639 325.188 86.5174 324.864 87.3801C325.793 86.5196 326.933 85.1944 328.341 83.4144C327.283 85.8187 326.593 87.6935 326.187 89.1451C326.94 88.7835 327.894 88.1625 329.088 87.2221C328.237 88.2058 325.617 90.8748 325.731 92.2264C326.295 91.8996 326.94 91.4743 327.676 90.9383C327.003 91.6606 326.4 92.3239 325.884 92.9251C326.019 93.253 327.245 93.0065 327.507 92.9538C328.581 92.3302 329.56 91.589 329.936 91.456C329.49 91.8701 329.088 92.2658 328.728 92.6443C328.886 92.5981 329.051 92.5486 329.221 92.4953C329.45 92.2982 329.687 92.0866 329.935 91.8567C329.845 92.0222 329.757 92.1866 329.67 92.3504C330.435 92.0975 331.317 91.7774 332.325 91.384C332.162 91.4895 332.004 91.5923 331.848 91.694C329.734 93.4483 328.56 94.8795 328.183 96.0502C328.931 95.8309 329.785 95.5545 330.756 95.2173C329.968 95.6835 329.273 96.1144 328.67 96.512C329.896 96.789 332.117 96.7849 335.39 96.5481C333.58 97.3504 331.68 97.991 330.22 99.3374C331.108 99.7305 332.247 100.047 333.6 100.305C333.313 100.354 333.027 100.426 332.743 100.519C333.029 100.511 333.324 100.502 333.627 100.492C333.172 100.674 332.726 100.85 332.297 101.021C333.015 101.175 333.909 101.321 335.004 101.462C334.346 101.587 333.753 101.709 333.216 101.83C333.953 101.744 334.791 101.627 335.74 101.474C332.218 102.799 330.325 103.809 330.15 104.64C331.067 104.899 332.263 105.025 333.062 104.98C332.716 105.059 332.397 105.138 332.102 105.218C332.403 105.275 332.72 105.33 333.059 105.387C332.327 105.497 331.673 105.609 331.088 105.721C332.228 106.25 334.402 106.71 337.651 107.165C336.012 107.508 334.503 107.805 333.398 108.129C333.774 108.147 334.167 108.154 334.57 108.15C333.351 108.433 332.426 108.68 331.743 108.895C331.1 109.565 332.161 110.451 336.239 111.889C334.198 111.841 332.732 111.898 331.713 112.027C331.931 112.039 332.152 112.049 332.378 112.055C331.333 112.257 330.502 112.442 329.852 112.608C329.041 113.429 332.022 114.675 333.601 114.922C326.592 115.019 329.492 117.332 334.409 118.338C330.986 118.397 329.769 118.647 329.719 118.971C296.188 117.182 294.935 115.56 271.773 121.348C271.676 121.035 270.435 120.968 267.041 121.419C268.905 120.736 270.426 119.898 271.155 119.194C270.094 119.378 269.444 119.232 268.29 119.345C268.451 119.254 268.601 119.161 268.742 119.068C267.994 119.042 266.885 119.079 265.315 119.203C266.69 118.782 267.889 118.271 268.737 117.768C268.32 117.799 267.853 117.85 267.333 117.92C267.547 117.852 267.786 117.762 268.035 117.653Z" fill="#040606"/>
<path fill-rule="evenodd" clip-rule="evenodd" d="M429.152 100.336C429.355 100.306 429.569 100.276 429.791 100.245C428.721 100.157 427.918 100.088 426.943 99.6196C426.715 99.0151 427.791 98.3892 430.942 97.9846C430.295 97.9581 429.401 97.7948 428.613 97.5494C429.555 97.4202 430.778 97.3218 432.343 97.264C430.542 96.7491 429.313 96.3034 428.546 95.9058C430.052 94.7661 431.363 94.8389 433.217 94.6711C431.739 94.3336 430.638 94.0205 429.855 93.7257C430.163 93.6898 430.487 93.6555 430.828 93.6223C430.545 93.5594 430.275 93.4974 430.019 93.4361C430.997 93.1269 432.193 92.8117 433.466 92.4654C431.503 92.3099 429.926 92.1291 428.727 91.9098C429.615 91.2585 431.711 90.6034 434.081 89.8191C432.16 89.7707 430.605 89.6776 429.407 89.5299C430.104 89.2871 430.866 89.0326 431.659 88.7642C430.15 88.7362 428.867 88.6794 427.804 88.5889C428.666 88.0889 429.804 87.5287 431.215 86.899C430.307 87.102 429.5 87.2674 428.786 87.3951C429.373 86.8404 430.09 86.2496 430.951 85.617C430.38 85.7473 428.382 87.0234 426.792 87.3723C427.517 86.6055 429.111 85.6237 431.534 84.3815C430.121 84.7785 428.955 85.0659 428.006 85.253C428.253 85.0725 428.513 84.89 428.787 84.704C428.508 84.7574 427.882 85.0667 427.129 85.4057C426.376 85.5178 425.809 85.5434 425.407 85.4878C426.268 84.8791 427.494 84.1684 429.076 83.3437C428.206 83.5943 427.43 83.803 426.74 83.9714C427.298 83.4589 427.936 82.9 428.642 82.2973C427.061 83.1936 425.887 83.6939 425.04 83.8815C425.661 82.9266 426.974 81.5832 428.717 79.9251C427.524 80.6877 426.566 81.198 425.805 81.4952C426.279 80.3142 426.918 78.9152 427.753 77.2657C426.332 78.8769 425.172 80.0939 424.226 80.9064C424.797 80.3053 425.423 79.4016 426.059 78.6613C425.149 79.4283 424.518 79.9538 423.857 80.2649C424.368 79.1297 425.038 77.7991 425.901 76.2399C425.036 77.1503 424.265 77.9296 423.579 78.5752C423.837 77.641 424.23 76.5782 424.671 75.4872C422.947 77.4931 421.715 78.4083 420.862 78.5715C421.053 77.4405 421.558 75.9954 422.151 74.4964C421.379 75.4085 420.706 76.0968 420.12 76.5932C420.053 75.3681 420.383 74.6095 420.738 73.4355C420.496 73.8314 420.263 74.2074 420.038 74.5633C420.029 74.2697 420.021 73.9669 420.015 73.6552C419.745 74.1881 419.486 74.6825 419.237 75.1415C419.277 74.3291 419.394 73.4355 419.562 72.5322C419.087 73.5381 418.665 74.333 418.294 74.949C418.285 74.1616 418.288 73.2942 418.302 72.3462C417.724 73.3901 417.194 74.2832 416.708 75.0462C416.677 74.0291 416.802 72.8122 417.023 71.5766C416.587 72.516 416.197 73.2709 415.848 73.8695C415.888 72.995 415.951 72.1495 415.995 71.496C415.849 71.9364 415.682 72.367 415.499 72.7827C415.474 71.706 415.498 70.6163 415.509 69.8152C415.01 71.6499 414.149 73.3282 413.221 74.519C412.888 72.9849 412.942 70.4127 412.951 68.8881C412.584 70.2765 412.009 71.5771 411.354 72.6466C411.344 72.3343 411.335 72.0222 411.328 71.7143C411.287 70.0725 411.099 71.5601 409.565 73.8551C409.648 72.9288 409.829 71.8199 410.13 70.5016C409.822 71.04 409.525 71.5435 409.239 72.0132C409.293 71.1907 409.409 70.2362 409.599 69.1367C408.564 71.1963 407.657 72.7704 406.837 73.8684C406.579 72.7339 406.595 70.918 407.037 68.2484C406.352 69.6338 405.354 71.5328 404.43 72.8289C404.445 71.7115 404.5 70.6558 404.467 70.0242C403.506 71.7289 402.677 73.014 401.957 73.9579C401.221 72.782 400.877 71.7395 400.457 70.4297C400.458 70.5888 400.458 70.7455 400.457 70.8999C400.286 70.486 400.112 70.0482 399.936 69.5821C400.036 71.2055 399.967 72.5593 399.766 73.6166C399.019 72.605 398.969 72.4575 398.908 71.2504C398.86 71.4855 398.81 71.713 398.761 71.9372C398.317 71.0655 397.86 70.0054 397.377 68.7604C397.455 69.8885 397.449 70.8866 397.373 71.7467C397.307 70.7204 397.307 69.7564 397.299 69.1632C396.735 71.4943 396.077 73.2161 395.399 74.3737C394.641 73.2679 394.076 71.4976 393.688 70.223C393.699 70.4821 393.716 70.812 393.732 71.1887C393.542 70.7367 393.352 70.2542 393.164 69.738C393.259 70.6968 393.482 72.6275 393.376 74.2446C393.004 73.8042 392.621 73.2445 392.232 72.5583C392.217 72.4082 392.202 72.2567 392.189 72.1021L392.129 72.3724C391.624 71.4519 391.112 70.3193 390.607 68.9625C390.689 69.7424 390.861 71.1661 390.872 72.5412C390.137 72.854 389.681 72.754 389.331 70.0142C388.77 72.198 389.442 73.6005 388.844 74.7113C388.182 73.8798 387.432 72.8243 386.583 71.5023C386.583 71.6556 386.591 71.8332 386.603 72.0301C386.451 71.826 386.296 71.6157 386.138 71.3961C386.176 72.0345 386.353 73.0951 386.492 74.2182C385.679 73.3715 384.72 72.2096 383.592 70.6678C383.649 71.5384 383.97 73.1915 384.102 74.72C383.181 73.7224 382.128 72.2864 380.901 70.4032C381.605 72.8267 381.853 74.5551 381.785 75.7166C380.102 73.5228 379.791 72.0072 379.828 73.4705C379.495 72.9786 379.434 72.9852 379.509 73.8439C379.566 74.4956 379.622 75.1666 379.663 75.824C377.279 73.3567 376.807 71.3359 376.98 73.1605C377.047 73.8693 377.113 74.6 377.159 75.3131L377.102 75.2407C377.005 75.0457 376.911 74.8476 376.823 74.6454L376.871 74.9368C376.195 74.0177 375.572 72.9222 375.104 71.7404C375.272 73.0802 375.872 76.6422 375.349 78.1603C374.646 77.2627 373.837 76.1019 372.905 74.6307C372.933 75.0048 372.957 75.366 372.98 75.7141C372.87 75.5636 372.76 75.4103 372.648 75.252C372.731 75.907 372.805 76.5228 372.87 77.1016C372.44 76.5388 371.947 75.8119 371.378 74.8929C371.591 75.592 371.771 76.2885 371.902 76.9485C371.364 76.2837 370.775 75.5116 370.129 74.6155C370.462 77.0951 370.659 79.0217 370.652 80.4241C370.47 80.1849 370.292 79.9384 370.123 79.6853C370.259 80.0709 370.421 80.5278 370.59 81.0189C369.724 80.8711 368.446 80.0873 366.632 78.4001C367.149 79.3574 367.623 80.2932 367.976 81.1389C367.259 80.5381 366.453 79.8118 365.545 78.9623C366.01 79.6972 366.425 80.379 366.795 81.0129C366.396 80.6919 365.976 80.344 365.531 79.9719C366.199 80.9113 366.774 81.7635 367.27 82.5397C366.183 81.8916 364.792 80.8322 363.045 79.3834C364.58 81.5151 365.645 83.2063 366.344 84.5411C365.532 84.3446 364.469 83.9348 363.105 83.2637C364.142 84.0484 367.26 86.1144 367.43 87.4608C366.81 87.2585 366.091 86.9763 365.261 86.6049C366.067 87.1711 366.795 87.6955 367.425 88.1755C367.362 88.524 366.111 88.5386 365.845 88.5407C364.665 88.1547 363.552 87.6328 363.156 87.5809C363.679 87.8939 364.154 88.1969 364.586 88.4926C364.421 88.4805 364.25 88.4656 364.072 88.4489C363.808 88.3036 363.532 88.1467 363.241 87.9729C363.363 88.1156 363.483 88.2584 363.602 88.4004C362.801 88.3122 361.872 88.1822 360.804 88.0081C360.987 88.0771 361.163 88.1449 361.336 88.2119C363.769 89.4877 365.214 90.6447 365.826 91.7106C365.05 91.6511 364.157 91.5583 363.136 91.4306C364.003 91.7235 364.773 92.0001 365.446 92.2636C364.305 92.7899 362.131 93.2473 358.881 93.6964C360.818 94.1046 362.809 94.3355 364.517 95.35C363.73 95.9189 362.681 96.4651 361.412 96.9992C361.703 96.9873 361.998 96.9981 362.295 97.0291C362.014 97.0811 361.723 97.1342 361.424 97.1869C361.908 97.2698 362.381 97.3501 362.836 97.4282C362.166 97.7276 361.321 98.0571 360.28 98.4222C360.949 98.4073 361.555 98.4046 362.106 98.4109C361.366 98.4805 360.522 98.5389 359.562 98.5872C363.283 99.1509 365.345 99.7449 365.688 100.521C364.845 100.965 363.702 101.338 362.911 101.46C363.266 101.465 363.595 101.477 363.9 101.493C363.617 101.61 363.318 101.731 362.998 101.857C363.737 101.813 364.4 101.787 364.996 101.775C363.99 102.528 361.96 103.43 358.877 104.552C360.551 104.545 362.089 104.523 363.237 104.61C362.872 104.706 362.49 104.794 362.094 104.874C363.346 104.898 364.302 104.947 365.014 105.015C365.782 105.536 364.929 106.625 361.239 108.877C363.226 108.406 364.671 108.158 365.695 108.072C365.486 108.129 365.27 108.185 365.051 108.238C366.114 108.219 366.966 108.225 367.636 108.254C368.6 108.888 365.944 110.727 364.45 111.296C371.326 109.935 368.97 112.799 364.37 114.805C367.731 114.152 368.974 114.144 369.09 114.451C401.516 105.728 402.404 103.882 426.263 104.728C426.293 104.401 427.493 104.078 430.906 103.812C428.942 103.532 427.28 103.03 426.42 102.492C427.496 102.452 428.102 102.173 429.254 102.044C429.077 101.988 428.912 101.928 428.754 101.866C429.48 101.686 430.573 101.492 432.134 101.286C430.701 101.16 429.423 100.909 428.489 100.594C428.903 100.537 429.37 100.49 429.894 100.451C429.67 100.43 429.418 100.39 429.152 100.336Z" fill="#040606"/>
<mask id="mask0_16511_27060" style="mask-type:luminance" maskUnits="userSpaceOnUse" x="322" y="119" width="65" height="86">
<path d="M322.95 125.565L378.082 119.77L386.405 198.96L331.273 204.755L322.95 125.565Z" fill="white"/>
</mask>
<g mask="url(#mask0_16511_27060)">
<mask id="mask1_16511_27060" style="mask-type:luminance" maskUnits="userSpaceOnUse" x="329" y="122" width="56" height="80">
<path fill-rule="evenodd" clip-rule="evenodd" d="M369.939 197.165C372.139 194.97 372.82 192.476 376.304 190.125C382.37 186.032 386.064 185.125 383.85 177.988C382.561 173.829 381.207 172.41 377.296 166.867C374.173 162.442 371.841 158.306 369.171 152.639C365.275 144.368 361.497 133.429 357.034 127.36C352.226 120.821 348.585 121.099 345.195 128.491C342.053 135.342 340.629 146.908 338.525 155.86C337.092 161.958 335.67 166.489 333.536 171.466C330.863 177.701 329.834 179.371 329.437 183.707C328.756 191.148 332.557 191.268 339.342 194.01C343.867 195.84 344.734 198.643 348.419 200.335C354.731 203.233 364.911 202.178 369.939 197.165Z" fill="white"/>
</mask>
<g mask="url(#mask1_16511_27060)">
<path d="M321.691 123.925L330.298 205.816L387.605 199.793L378.998 117.902L321.691 123.925Z" fill="url(#paint0_linear_16511_27060)"/>
</g>
</g>
<path fill-rule="evenodd" clip-rule="evenodd" d="M341.852 195.337C341.476 192.626 341.892 191.491 343.862 188.902C341.486 191.211 341.002 192.135 340.769 194.685C341.137 194.887 341.506 195.1 341.852 195.337Z" fill="#BD844D"/>
<path fill-rule="evenodd" clip-rule="evenodd" d="M374.115 191.946C373.919 189.216 373.277 188.193 370.812 186.07C373.616 187.834 374.281 188.638 375.039 191.084C374.721 191.357 374.405 191.643 374.115 191.946Z" fill="#BD844D"/>
<path fill-rule="evenodd" clip-rule="evenodd" d="M371.693 195.028C361.702 199.594 354.739 200.326 344.871 197.847C352.179 204.525 365.913 203.111 371.693 195.028Z" fill="#BD844D"/>
<path fill-rule="evenodd" clip-rule="evenodd" d="M259.403 119.492C263.177 115.517 267.028 111.65 270.801 107.676C271.228 111.736 271.655 115.796 272.081 119.856C267.881 119.771 263.603 119.578 259.403 119.492Z" fill="#040606"/>
<path fill-rule="evenodd" clip-rule="evenodd" d="M330.488 152.163C333.985 146.941 335.704 141.299 335.379 133.977C334.975 124.847 334.762 122.893 323.274 120.377C313.561 118.249 281.417 116.799 276.958 125.947C274.837 130.298 275.319 134.77 277.037 141.534C279.537 151.381 281.169 159.131 292.739 162.267C299.729 164.161 307.338 163.904 314.992 162.088C321.381 160.571 326.267 158.464 330.488 152.163ZM376.265 147.351C371.758 142.971 368.903 137.81 367.698 130.58C366.195 121.565 365.998 119.609 376.711 114.761C385.77 110.66 416.91 102.558 423.173 110.579C426.153 114.394 426.611 118.869 426.337 125.842C425.939 135.993 425.954 143.913 415.289 149.386C408.846 152.692 401.348 154.023 393.485 153.838C386.921 153.683 381.703 152.637 376.265 147.351ZM342.318 138.621C338.212 151.689 334.67 157.97 325.533 163.171C319.143 166.808 312.263 168.078 305.299 168.072C287.621 168.059 279.796 165.315 273.396 149.551C269.846 141.201 269.396 131.516 262.204 131.655C261.266 127.6 260.329 123.546 259.391 119.492C291.445 109.327 325.294 115.819 345.663 116.576C348.948 116.698 350.482 116.631 354.213 115.647C373.943 110.444 405.656 97.345 439.015 100.613C438.94 104.774 438.866 108.934 438.792 113.095C431.728 114.455 433.301 124.021 431.564 132.927C428.582 149.676 421.499 153.988 404.21 157.676C397.4 159.13 390.406 159.318 383.399 157.088C373.381 153.901 368.61 148.494 361.877 136.566C358.242 130.127 356.119 126.857 351.121 127.368C345.872 127.905 344.578 131.433 342.318 138.621Z" fill="#151516"/>
<path d="M323.875 159.465C315.799 164.233 301.542 165.309 292.573 162.878C280.842 159.699 279.073 152.16 276.421 141.689C275.073 136.382 273.869 130.834 276.386 125.67C281.167 115.863 314.346 117.774 323.41 119.759C334.042 122.088 335.545 123.361 336.015 133.947C336.442 143.6 332.558 154.339 323.875 159.465ZM334.745 134.005C334.304 124.046 333.191 123.197 323.139 120.995C314.757 119.159 281.914 117.23 277.53 126.223C275.174 131.055 276.393 136.42 277.653 141.38C280.155 151.256 281.809 158.648 292.904 161.655C301.543 163.996 315.452 162.967 323.23 158.374C331.495 153.496 335.152 143.18 334.745 134.005ZM384.654 151.918C393.217 154.793 407.036 152.909 415 148.823C425.227 143.574 425.308 136 425.702 125.819C425.902 120.706 425.98 115.205 422.672 110.968C416.514 103.084 384.79 111.799 376.972 115.337C367.597 119.58 366.685 120.642 368.324 130.476C369.834 139.535 375.557 148.865 384.654 151.918ZM367.071 130.683C365.329 120.231 366.535 118.673 376.45 114.184C384.904 110.358 416.959 101.591 423.675 110.19C427.211 114.717 427.187 120.394 426.972 125.866C426.555 136.659 426.392 144.401 415.578 149.95C407.31 154.192 393.141 156.104 384.25 153.119C374.692 149.91 368.659 140.214 367.071 130.683Z" fill="#040606"/>
<path fill-rule="evenodd" clip-rule="evenodd" d="M345.504 123.281C344.747 121.822 343.56 120.538 341.556 119.079C341.664 122.146 342.129 124.375 342.854 126.302C343.975 129.282 347.82 127.747 345.504 123.281ZM355.57 122.223C356.007 120.638 356.902 119.136 358.559 117.292C359.091 120.314 359.099 122.591 358.792 124.627C358.314 127.775 354.233 127.073 355.57 122.223Z" fill="#191A1A"/>
<path fill-rule="evenodd" clip-rule="evenodd" d="M417.086 150.292C422.699 146.29 424.339 144.601 426.687 138.452C425.438 144.051 423.373 146.989 417.086 150.292ZM404.383 154.55C385.29 156.856 374.759 154.843 366.984 134.808C373.479 155.675 383.481 157.867 404.383 154.55ZM439.015 100.613C423.007 100.341 409.987 101.545 394.515 105.414C410.762 102.416 423.727 101.912 438.989 102.082C438.997 101.555 439.009 101.04 439.015 100.613Z" fill="#28292A"/>
<path fill-rule="evenodd" clip-rule="evenodd" d="M291.169 163.526C284.847 160.778 282.892 159.468 279.315 153.941C281.702 159.158 284.332 161.603 291.169 163.526ZM304.48 165.05C323.635 163.337 333.517 159.178 336.956 137.964C334.943 159.726 325.615 163.949 304.48 165.05ZM259.39 119.492C274.993 115.899 287.978 114.369 303.917 114.936C287.401 115.382 274.614 117.584 259.721 120.924C259.604 120.41 259.486 119.908 259.39 119.492Z" fill="#28292A"/>
<defs>
<linearGradient id="paint0_linear_16511_27060" x1="326.036" y1="165.27" x2="383.343" y2="159.247" gradientUnits="userSpaceOnUse">
<stop stop-color="#CA976E"/>
<stop offset="0.015625" stop-color="#CA976E"/>
<stop offset="0.0195312" stop-color="#CD996F"/>
<stop offset="0.0234375" stop-color="#CF9A70"/>
<stop offset="0.0273438" stop-color="#D69E72"/>
<stop offset="0.03125" stop-color="#DEA274"/>
<stop offset="0.0351562" stop-color="#E5A575"/>
<stop offset="0.0390625" stop-color="#EDA876"/>
<stop offset="0.0429688" stop-color="#F3AB78"/>
<stop offset="0.046875" stop-color="#F9AD7A"/>
<stop offset="0.0507812" stop-color="#F9AD7A"/>
<stop offset="0.0546875" stop-color="#F9AD7B"/>
<stop offset="0.0585938" stop-color="#F9AD7A"/>
<stop offset="0.0625" stop-color="#F9AD79"/>
<stop offset="0.0664062" stop-color="#F9AC79"/>
<stop offset="0.0703125" stop-color="#F9AC78"/>
<stop offset="0.078125" stop-color="#F9AC78"/>
<stop offset="0.0820312" stop-color="#F9AC77"/>
<stop offset="0.0859375" stop-color="#F9AB77"/>
<stop offset="0.0898438" stop-color="#F9AB76"/>
<stop offset="0.09375" stop-color="#F9AB76"/>
<stop offset="0.0976562" stop-color="#F8AA75"/>
<stop offset="0.101562" stop-color="#F7AA75"/>
<stop offset="0.105469" stop-color="#F6A974"/>
<stop offset="0.109375" stop-color="#F5A974"/>
<stop offset="0.113281" stop-color="#F5A973"/>
<stop offset="0.117188" stop-color="#F4A873"/>
<stop offset="0.121094" stop-color="#F3A872"/>
<stop offset="0.125" stop-color="#F3A772"/>
<stop offset="0.128906" stop-color="#F2A772"/>
<stop offset="0.132812" stop-color="#F2A772"/>
<stop offset="0.136719" stop-color="#F1A671"/>
<stop offset="0.140625" stop-color="#F0A671"/>
<stop offset="0.144531" stop-color="#F0A670"/>
<stop offset="0.148438" stop-color="#EFA670"/>
<stop offset="0.152344" stop-color="#EFA56F"/>
<stop offset="0.15625" stop-color="#EEA46F"/>
<stop offset="0.160156" stop-color="#EDA46E"/>
<stop offset="0.164063" stop-color="#ECA36D"/>
<stop offset="0.167969" stop-color="#EBA36D"/>
<stop offset="0.171875" stop-color="#EBA26D"/>
<stop offset="0.175781" stop-color="#EAA26C"/>
<stop offset="0.179688" stop-color="#EAA16C"/>
<stop offset="0.183594" stop-color="#E9A16C"/>
<stop offset="0.1875" stop-color="#E8A16B"/>
<stop offset="0.191406" stop-color="#E8A06B"/>
<stop offset="0.195312" stop-color="#E7A06A"/>
<stop offset="0.199219" stop-color="#E7A06A"/>
<stop offset="0.203125" stop-color="#E6A06A"/>
<stop offset="0.207031" stop-color="#E69F69"/>
<stop offset="0.210937" stop-color="#E59F68"/>
<stop offset="0.214844" stop-color="#E59E68"/>
<stop offset="0.21875" stop-color="#E49E67"/>
<stop offset="0.222656" stop-color="#E39E67"/>
<stop offset="0.226562" stop-color="#E39D67"/>
<stop offset="0.230469" stop-color="#E29D67"/>
<stop offset="0.234375" stop-color="#E29C66"/>
<stop offset="0.242188" stop-color="#E19C66"/>
<stop offset="0.246094" stop-color="#E09B65"/>
<stop offset="0.25" stop-color="#DF9A65"/>
<stop offset="0.253906" stop-color="#DE9A64"/>
<stop offset="0.257812" stop-color="#DD9963"/>
<stop offset="0.261719" stop-color="#DD9963"/>
<stop offset="0.265625" stop-color="#DD9963"/>
<stop offset="0.273438" stop-color="#DC9962"/>
<stop offset="0.277344" stop-color="#DB9862"/>
<stop offset="0.28125" stop-color="#DA9761"/>
<stop offset="0.285156" stop-color="#DA9761"/>
<stop offset="0.289062" stop-color="#D99760"/>
<stop offset="0.292969" stop-color="#D99660"/>
<stop offset="0.296875" stop-color="#D8965F"/>
<stop offset="0.300781" stop-color="#D7965F"/>
<stop offset="0.304688" stop-color="#D7955E"/>
<stop offset="0.308594" stop-color="#D6955E"/>
<stop offset="0.3125" stop-color="#D5955E"/>
<stop offset="0.316406" stop-color="#D5945D"/>
<stop offset="0.320313" stop-color="#D5945D"/>
<stop offset="0.324219" stop-color="#D4935C"/>
<stop offset="0.328125" stop-color="#D3935C"/>
<stop offset="0.332031" stop-color="#D3925B"/>
<stop offset="0.335938" stop-color="#D2925B"/>
<stop offset="0.339844" stop-color="#D1925A"/>
<stop offset="0.34375" stop-color="#D0915A"/>
<stop offset="0.351563" stop-color="#D0915A"/>
<stop offset="0.355469" stop-color="#CE9059"/>
<stop offset="0.359375" stop-color="#CE8F58"/>
<stop offset="0.363281" stop-color="#CD8F58"/>
<stop offset="0.367188" stop-color="#CC8E57"/>
<stop offset="0.375" stop-color="#CC8E57"/>
<stop offset="0.382812" stop-color="#CB8D56"/>
<stop offset="0.386719" stop-color="#CA8C56"/>
<stop offset="0.390625" stop-color="#C98C55"/>
<stop offset="0.394531" stop-color="#C88B55"/>
<stop offset="0.398437" stop-color="#C88B54"/>
<stop offset="0.402344" stop-color="#C88B54"/>
<stop offset="0.40625" stop-color="#C78A53"/>
<stop offset="0.414062" stop-color="#C68A53"/>
<stop offset="0.417969" stop-color="#C58953"/>
<stop offset="0.421875" stop-color="#C58952"/>
<stop offset="0.425781" stop-color="#C48852"/>
<stop offset="0.429687" stop-color="#C38851"/>
<stop offset="0.4375" stop-color="#C38851"/>
<stop offset="0.5" stop-color="#C38851"/>
<stop offset="0.5625" stop-color="#C38851"/>
<stop offset="0.570312" stop-color="#C38851"/>
<stop offset="0.578125" stop-color="#C48952"/>
<stop offset="0.582031" stop-color="#C58953"/>
<stop offset="0.585938" stop-color="#C68A53"/>
<stop offset="0.59375" stop-color="#C68A53"/>
<stop offset="0.601562" stop-color="#C78B54"/>
<stop offset="0.605469" stop-color="#C88B55"/>
<stop offset="0.609375" stop-color="#C98C56"/>
<stop offset="0.617188" stop-color="#C98C56"/>
<stop offset="0.621094" stop-color="#CA8D57"/>
<stop offset="0.625" stop-color="#CA8E57"/>
<stop offset="0.632812" stop-color="#CA8E57"/>
<stop offset="0.636719" stop-color="#CB8F58"/>
<stop offset="0.640625" stop-color="#CC8F59"/>
<stop offset="0.644531" stop-color="#CD9059"/>
<stop offset="0.648438" stop-color="#CD905A"/>
<stop offset="0.652344" stop-color="#CE915A"/>
<stop offset="0.65625" stop-color="#CE915B"/>
<stop offset="0.660156" stop-color="#CF925B"/>
<stop offset="0.664062" stop-color="#D0925C"/>
<stop offset="0.667969" stop-color="#D1935C"/>
<stop offset="0.671875" stop-color="#D1935D"/>
<stop offset="0.675781" stop-color="#D2945D"/>
<stop offset="0.679688" stop-color="#D3945E"/>
<stop offset="0.683594" stop-color="#D3945E"/>
<stop offset="0.6875" stop-color="#D4955F"/>
<stop offset="0.691406" stop-color="#D4955F"/>
<stop offset="0.695312" stop-color="#D59560"/>
<stop offset="0.699219" stop-color="#D59661"/>
<stop offset="0.703125" stop-color="#D69761"/>
<stop offset="0.707031" stop-color="#D69761"/>
<stop offset="0.710938" stop-color="#D79762"/>
<stop offset="0.714844" stop-color="#D79762"/>
<stop offset="0.71875" stop-color="#D89863"/>
<stop offset="0.722656" stop-color="#D89863"/>
<stop offset="0.726562" stop-color="#D89964"/>
<stop offset="0.730469" stop-color="#D99964"/>
<stop offset="0.734375" stop-color="#D99965"/>
<stop offset="0.738281" stop-color="#DA9965"/>
<stop offset="0.742187" stop-color="#DB9A65"/>
<stop offset="0.75" stop-color="#DB9A66"/>
<stop offset="0.753906" stop-color="#DC9B66"/>
<stop offset="0.757813" stop-color="#DD9B66"/>
<stop offset="0.761719" stop-color="#DD9C67"/>
<stop offset="0.765625" stop-color="#DD9C68"/>
<stop offset="0.769531" stop-color="#DE9D68"/>
<stop offset="0.773438" stop-color="#DF9D69"/>
<stop offset="0.777344" stop-color="#E09E69"/>
<stop offset="0.78125" stop-color="#E09E6A"/>
<stop offset="0.789062" stop-color="#E19E6A"/>
<stop offset="0.792969" stop-color="#E19F6B"/>
<stop offset="0.796875" stop-color="#E29F6B"/>
<stop offset="0.800781" stop-color="#E2A06C"/>
<stop offset="0.804688" stop-color="#E3A06C"/>
<stop offset="0.808594" stop-color="#E4A16D"/>
<stop offset="0.8125" stop-color="#E4A16D"/>
<stop offset="0.816406" stop-color="#E5A16D"/>
<stop offset="0.820312" stop-color="#E6A26E"/>
<stop offset="0.824219" stop-color="#E6A36E"/>
<stop offset="0.828125" stop-color="#E7A36F"/>
<stop offset="0.832031" stop-color="#E7A36F"/>
<stop offset="0.835938" stop-color="#E8A46F"/>
<stop offset="0.839844" stop-color="#E8A470"/>
<stop offset="0.84375" stop-color="#E9A471"/>
<stop offset="0.847656" stop-color="#E9A571"/>
<stop offset="0.851562" stop-color="#EAA571"/>
<stop offset="0.855469" stop-color="#EBA672"/>
<stop offset="0.859375" stop-color="#EBA672"/>
<stop offset="0.863281" stop-color="#ECA773"/>
<stop offset="0.867188" stop-color="#EDA873"/>
<stop offset="0.871094" stop-color="#EEA874"/>
<stop offset="0.875" stop-color="#EFA974"/>
<stop offset="0.878906" stop-color="#EFA975"/>
<stop offset="0.882812" stop-color="#F0AA75"/>
<stop offset="0.886719" stop-color="#F0AA75"/>
<stop offset="0.890625" stop-color="#F0AA76"/>
<stop offset="0.894531" stop-color="#F1AA76"/>
<stop offset="0.898438" stop-color="#F1AB77"/>
<stop offset="0.902344" stop-color="#F2AB77"/>
<stop offset="0.90625" stop-color="#F3AB78"/>
<stop offset="0.910156" stop-color="#F3AB78"/>
<stop offset="0.914062" stop-color="#F4AC78"/>
<stop offset="0.917969" stop-color="#F4AC79"/>
<stop offset="0.921875" stop-color="#F5AC79"/>
<stop offset="0.925781" stop-color="#F6AD7A"/>
<stop offset="0.929688" stop-color="#F6AD7A"/>
<stop offset="0.933594" stop-color="#F7AE7A"/>
<stop offset="0.9375" stop-color="#F8AE7A"/>
<stop offset="0.941406" stop-color="#F6AD7A"/>
<stop offset="0.945312" stop-color="#F4AC7A"/>
<stop offset="0.949219" stop-color="#EEAA79"/>
<stop offset="0.953125" stop-color="#E9A878"/>
<stop offset="0.957031" stop-color="#E4A577"/>
<stop offset="0.960938" stop-color="#DEA375"/>
<stop offset="0.964844" stop-color="#DAA074"/>
<stop offset="0.96875" stop-color="#D69E72"/>
<stop offset="0.972656" stop-color="#D29C71"/>
<stop offset="0.976562" stop-color="#CD996F"/>
<stop offset="0.980469" stop-color="#CB986F"/>
<stop offset="0.984375" stop-color="#CA976E"/>
<stop offset="1" stop-color="#CA976E"/>
</linearGradient>
</defs>
</svg>
