<svg height="40" viewBox="0 0 256 256" fill="none" xmlns="http://www.w3.org/2000/svg">
<path d="M127.859 1.4032C79.1798 1.4032 39.5808 41.0021 39.5808 89.6816C39.5808 103.223 42.5655 116.212 48.5034 128.38C56.668 144.765 80.5616 185.161 105.861 227.934L118.179 248.78C120.2 252.199 123.88 254.307 127.859 254.307C131.839 254.307 135.518 252.207 137.54 248.78L149.85 227.95C174.975 185.477 198.719 145.333 207.041 128.736C207.12 128.594 207.199 128.444 207.262 128.301C213.153 116.212 216.13 103.216 216.13 89.6895C216.138 41.01 176.531 1.4032 127.859 1.4032Z" fill="#15803D"/>
<path d="M171.824 50.0588C169.471 50.6765 164.5 51.7941 160.794 52.5294C151.353 54.3824 149.853 54.9412 145.647 58.0588C139.676 62.5 135.5 71.0882 135.529 78.8824C135.559 81.853 136 83.9706 136.5 83.4118C136.618 83.2647 137.029 82.4118 137.382 81.5294C139.176 77.2059 144.382 70.6177 148.824 67.0588C151.088 65.2353 155.647 63.4412 155.647 64.3824C155.647 64.7059 154.088 66.6471 152.235 68.5882C150.5 70.4412 149.912 71.2059 146.647 75.9412C143.265 80.9118 138.853 89.7941 135.882 97.7059C133 105.382 130.882 111.5 129.471 116.088C127.088 123.941 124.941 130.147 124.559 130.265C124.088 130.441 122.794 126.235 120.088 115.794C115.882 99.4412 114.088 93.8235 109.794 83.5882C106.853 76.6177 102.971 71.0294 95.0882 62.4706C90.7647 57.7353 84.6176 53.2059 80.9118 51.9706C78.5 51.1471 78.2941 51.5588 80.1176 53.5882C88.7059 63.2647 93.6765 70.4412 98.9412 80.6471C103.382 89.3235 106.441 97.9412 112 117.706C113.412 122.765 116.529 135.647 117.529 140.647C118.647 146.206 119.882 151.647 120.206 152.5C120.324 152.765 120.765 153.118 121.206 153.235C122.206 153.5 127.029 153.5 128.059 153.235C129.588 152.794 129.882 151.588 132 137.706C133.412 128.324 134.618 122.706 137.029 114.324C141.118 100.029 145.471 89.5588 148.118 87.853C148.5 87.6177 150.382 87.1471 152.353 86.8235C160 85.5588 166.147 82.1765 170.5 76.7941C173.412 73.2059 174.176 70.5588 174.912 61.7353C175.294 57.0588 175.529 55.7353 176.412 52.9412C176.971 51.1177 177.353 49.4706 177.294 49.2647C177.088 48.7353 176.618 48.7941 171.824 50.0588Z" fill="white"/>
</svg>
